<svg xmlns="http://www.w3.org/2000/svg" width="60" height="58" viewBox="0 0 60 58">
    <g fill="none" fill-rule="evenodd">
        <g fill="#323D47" fill-rule="nonzero">
            <g>
                <g>
                    <path fill="#323D47" d="M30 0C13.459 0 0 13.437 0 29.952c0 12.322 7.732 23.543 19.245 27.924.484.187 1.02.16 1.485-.064.465-.228.817-.633.971-1.127l5.625-17.934c.27-.85-.101-1.771-.881-2.198-2.434-1.344-3.945-3.871-3.945-6.6 0-4.13 3.364-7.489 7.5-7.489s7.5 3.359 7.5 7.488c0 2.73-1.511 5.257-3.949 6.597-.78.431-1.144 1.348-.881 2.198l5.625 17.934c.157.494.51.899.975 1.127.259.124.536.187.817.187.23 0 .454-.04.668-.123C52.267 53.495 60 42.274 60 29.952 60 13.437 46.541 0 30 0zm11.261 53.592L36.68 38.987c2.853-2.12 4.571-5.463 4.571-9.035 0-6.192-5.047-11.232-11.25-11.232s-11.25 5.04-11.25 11.232c0 3.576 1.718 6.916 4.571 9.035l-4.579 14.605C9.697 49.324 3.75 40.062 3.75 29.952 3.75 15.5 15.525 3.744 30 3.744c14.471 0 26.25 11.756 26.25 26.208 0 10.11-5.947 19.372-14.989 23.64z" transform="translate(-690 -1163) translate(285 973) translate(405 190)"/>
                </g>
            </g>
        </g>
    </g>
</svg>
